<?xml version="1.0" encoding="utf-8"?>
<!-- Generator: Adobe Illustrator 21.0.2, SVG Export Plug-In . SVG Version: 6.00 Build 0)  -->
<svg version="1.1" id="Layer_1" xmlns="http://www.w3.org/2000/svg" xmlns:xlink="http://www.w3.org/1999/xlink" x="0px" y="0px"
	 viewBox="0 0 283.5 170.1" style="enable-background:new 0 0 283.5 170.1;" xml:space="preserve">
<style type="text/css">
	.st0{fill:#4285F4;}
	.st1{fill:#EA4335;}
	.st2{fill:#FBBC05;}
	.st3{fill:#34A853;}
</style>
<g>
	<g>
		<path class="st0" d="M87.2,72.5v31.7c-1.6,1-3.4,1.8-5.4,2.5s-4.1,1.3-6.2,1.9c-2.2,0.5-4.3,0.9-6.5,1.1c-2.2,0.2-4.3,0.4-6.2,0.4
			c-5.5,0-10.3-0.9-14.6-2.7s-7.9-4.3-10.8-7.4c-2.9-3.1-5.2-6.7-6.7-10.8c-1.5-4.1-2.3-8.4-2.3-13c0-4.8,0.8-9.2,2.5-13.4
			c1.7-4.1,4-7.7,6.9-10.7c2.9-3,6.5-5.4,10.6-7.1c4.1-1.7,8.6-2.6,13.5-2.6c5.9,0,10.8,0.7,14.5,2.2c3.8,1.5,6.9,3.5,9.5,6.1
			l-6.2,6.6c-2.7-2.5-5.5-4.3-8.5-5.3c-3-1-6.1-1.5-9.4-1.5c-3.7,0-7,0.7-10,2c-3,1.4-5.5,3.2-7.6,5.5c-2.1,2.3-3.8,5-4.9,8.1
			c-1.2,3.1-1.7,6.4-1.7,10c0,3.6,0.6,7,1.9,10.1c1.3,3.1,3,5.8,5.3,8.1c2.2,2.3,4.9,4.1,7.9,5.4c3,1.3,6.3,2,9.9,2
			c3.1,0,6-0.3,8.8-0.9c2.8-0.6,5.1-1.4,7-2.5V80.6H64.2v-8.2H87.2z"/>
		<path class="st1" d="M141,108.4h-8.2v-6.6h-0.2c-1,2.3-2.8,4.2-5.4,5.6c-2.5,1.4-5.5,2.1-8.8,2.1c-2.1,0-4.1-0.3-6-1
			c-1.9-0.6-3.5-1.6-5-3c-1.4-1.3-2.6-3-3.4-5.1c-0.8-2.1-1.3-4.6-1.3-7.4V65.4h8.2v25.5c0,2,0.3,3.7,0.8,5.1
			c0.5,1.4,1.3,2.6,2.2,3.5c0.9,0.9,2,1.5,3.1,1.9c1.2,0.4,2.4,0.6,3.7,0.6c1.7,0,3.3-0.3,4.7-0.8c1.5-0.5,2.7-1.4,3.8-2.6
			c1.1-1.2,1.9-2.7,2.5-4.5c0.6-1.8,0.9-4,0.9-6.5V65.4h8.2V108.4z"/>
		<path class="st2" d="M155.1,65.4h8.2V72h0.2c0.5-1.2,1.3-2.2,2.2-3.1c0.9-0.9,1.9-1.7,3-2.4c1.1-0.7,2.3-1.2,3.7-1.6
			c1.3-0.4,2.7-0.6,4-0.6c1.3,0,2.5,0.2,3.6,0.5l-0.4,8.8c-0.7-0.2-1.3-0.3-2-0.5c-0.7-0.1-1.3-0.2-2-0.2c-4,0-7.1,1.1-9.2,3.4
			c-2.1,2.2-3.2,5.7-3.2,10.5v21.6h-8.2V65.4z"/>
		<path class="st0" d="M232.1,108.1c0,3.3-0.6,6.3-1.7,9c-1.1,2.7-2.7,5-4.8,7c-2.1,2-4.5,3.5-7.5,4.6c-2.9,1.1-6.1,1.6-9.6,1.6
			c-4.1,0-7.9-0.6-11.3-1.7c-3.4-1.2-6.7-3.2-9.8-6l5.5-6.9c2.1,2.3,4.4,4,6.9,5.2c2.5,1.2,5.3,1.8,8.5,1.8c3,0,5.5-0.4,7.5-1.3
			c2-0.9,3.6-2,4.8-3.4c1.2-1.4,2-3,2.5-4.8c0.5-1.8,0.7-3.6,0.7-5.4v-6.4h-0.3c-1.6,2.6-3.7,4.5-6.4,5.8c-2.7,1.2-5.5,1.9-8.5,1.9
			c-3.2,0-6.1-0.6-8.8-1.7c-2.7-1.1-5-2.7-7-4.6c-1.9-2-3.5-4.3-4.5-7c-1.1-2.7-1.6-5.6-1.6-8.8c0-3.2,0.5-6.1,1.5-8.9
			c1-2.8,2.5-5.2,4.4-7.2c1.9-2.1,4.2-3.7,6.9-4.8c2.7-1.2,5.7-1.7,9-1.7c2.9,0,5.7,0.6,8.5,1.9c2.8,1.3,4.9,3.1,6.5,5.4h0.2v-6.2
			h8.2V108.1z M209.8,71.9c-2.2,0-4.2,0.4-5.9,1.1c-1.8,0.8-3.2,1.8-4.5,3.1c-1.2,1.3-2.2,2.9-2.8,4.7c-0.7,1.8-1,3.9-1,6
			c0,4.4,1.3,7.9,3.8,10.5c2.5,2.6,6,4,10.4,4c4.4,0,7.8-1.3,10.4-4c2.5-2.6,3.8-6.1,3.8-10.5c0-2.2-0.3-4.2-1-6
			c-0.7-1.8-1.6-3.4-2.8-4.7c-1.2-1.3-2.7-2.3-4.5-3.1C213.9,72.3,211.9,71.9,209.8,71.9z"/>
		<path class="st3" d="M246.9,39.7h8.2v68.7h-8.2V39.7z"/>
	</g>
	<g>
		<g>
			<path class="st0" d="M91,123h1.4v1.1h0c0.2-0.4,0.5-0.7,0.9-0.9c0.4-0.2,0.9-0.4,1.5-0.4c0.3,0,0.7,0.1,1,0.2
				c0.3,0.1,0.6,0.3,0.8,0.5c0.2,0.2,0.4,0.5,0.6,0.9c0.1,0.3,0.2,0.8,0.2,1.2v4.6H96v-4.2c0-0.3,0-0.6-0.1-0.9
				c-0.1-0.2-0.2-0.4-0.4-0.6c-0.2-0.1-0.3-0.3-0.5-0.3c-0.2-0.1-0.4-0.1-0.6-0.1c-0.3,0-0.5,0-0.8,0.1c-0.2,0.1-0.5,0.2-0.6,0.4
				c-0.2,0.2-0.3,0.4-0.4,0.7c-0.1,0.3-0.2,0.7-0.2,1.1v3.7H91V123z"/>
			<path class="st0" d="M100.7,127.1c0,0.3,0.1,0.6,0.2,0.9c0.1,0.3,0.3,0.5,0.5,0.7c0.2,0.2,0.5,0.3,0.8,0.4
				c0.3,0.1,0.6,0.2,0.9,0.2c0.4,0,0.8-0.1,1.1-0.3c0.3-0.2,0.6-0.5,0.9-0.8l1,0.8c-0.8,1-1.8,1.5-3.2,1.5c-0.6,0-1.1-0.1-1.5-0.3
				c-0.5-0.2-0.8-0.5-1.2-0.8c-0.3-0.3-0.6-0.7-0.7-1.2c-0.2-0.5-0.3-1-0.3-1.5c0-0.5,0.1-1,0.3-1.5c0.2-0.5,0.4-0.9,0.8-1.2
				c0.3-0.3,0.7-0.6,1.2-0.8c0.5-0.2,0.9-0.3,1.5-0.3c0.6,0,1.2,0.1,1.6,0.3c0.4,0.2,0.8,0.5,1.1,0.9c0.3,0.4,0.5,0.8,0.6,1.2
				c0.1,0.4,0.2,0.9,0.2,1.4v0.5H100.7z M105,126c0-0.3-0.1-0.6-0.1-0.8c-0.1-0.3-0.2-0.5-0.4-0.7c-0.2-0.2-0.4-0.3-0.6-0.4
				c-0.3-0.1-0.6-0.2-0.9-0.2c-0.3,0-0.6,0.1-0.9,0.2c-0.3,0.1-0.5,0.3-0.7,0.5c-0.2,0.2-0.3,0.4-0.4,0.7c-0.1,0.2-0.2,0.5-0.2,0.7
				H105z"/>
			<path class="st0" d="M107.6,123h1.5l1.6,5.4h0l1.7-5.4h1.5l1.8,5.4h0l1.5-5.4h1.5l-2.3,7.2h-1.4l-1.9-5.4h0l-1.7,5.4h-1.5
				L107.6,123z"/>
			<path class="st0" d="M124.2,128.9l4.1-4.8h-3.9V123h5.6v1.2l-4.1,4.8h4.3v1.2h-6V128.9z"/>
			<path class="st0" d="M133.1,127.1c0,0.3,0.1,0.6,0.2,0.9c0.1,0.3,0.3,0.5,0.5,0.7c0.2,0.2,0.5,0.3,0.8,0.4
				c0.3,0.1,0.6,0.2,0.9,0.2c0.4,0,0.8-0.1,1.1-0.3c0.3-0.2,0.6-0.5,0.9-0.8l1,0.8c-0.8,1-1.8,1.5-3.2,1.5c-0.6,0-1.1-0.1-1.5-0.3
				c-0.5-0.2-0.8-0.5-1.2-0.8s-0.6-0.7-0.7-1.2c-0.2-0.5-0.3-1-0.3-1.5c0-0.5,0.1-1,0.3-1.5c0.2-0.5,0.4-0.9,0.8-1.2
				c0.3-0.3,0.7-0.6,1.2-0.8c0.5-0.2,0.9-0.3,1.5-0.3c0.6,0,1.2,0.1,1.6,0.3c0.4,0.2,0.8,0.5,1.1,0.9c0.3,0.4,0.5,0.8,0.6,1.2
				c0.1,0.4,0.2,0.9,0.2,1.4v0.5H133.1z M137.4,126c0-0.3-0.1-0.6-0.1-0.8c-0.1-0.3-0.2-0.5-0.4-0.7c-0.2-0.2-0.4-0.3-0.6-0.4
				c-0.3-0.1-0.6-0.2-0.9-0.2c-0.3,0-0.6,0.1-0.9,0.2c-0.3,0.1-0.5,0.3-0.7,0.5c-0.2,0.2-0.3,0.4-0.4,0.7c-0.1,0.2-0.2,0.5-0.2,0.7
				H137.4z"/>
			<path class="st0" d="M140.8,123.9c0.4-0.4,0.8-0.6,1.3-0.8c0.5-0.2,1-0.3,1.5-0.3c0.5,0,1,0.1,1.4,0.2c0.4,0.1,0.7,0.3,0.9,0.5
				c0.2,0.2,0.4,0.5,0.5,0.8c0.1,0.3,0.2,0.6,0.2,0.9v3.7c0,0.3,0,0.5,0,0.7c0,0.2,0,0.4,0,0.6h-1.2c0-0.4,0-0.7,0-1.1h0
				c-0.3,0.5-0.7,0.8-1.1,1c-0.4,0.2-0.9,0.3-1.4,0.3c-0.3,0-0.7,0-1-0.1c-0.3-0.1-0.6-0.2-0.8-0.4c-0.2-0.2-0.4-0.4-0.5-0.7
				c-0.1-0.3-0.2-0.6-0.2-0.9c0-0.5,0.1-0.9,0.3-1.2c0.2-0.3,0.5-0.6,0.8-0.8c0.4-0.2,0.8-0.3,1.3-0.4c0.5-0.1,1-0.1,1.5-0.1h1v-0.3
				c0-0.2,0-0.4-0.1-0.5c-0.1-0.2-0.2-0.3-0.3-0.5c-0.1-0.1-0.3-0.3-0.5-0.3c-0.2-0.1-0.5-0.1-0.8-0.1c-0.3,0-0.5,0-0.7,0.1
				c-0.2,0.1-0.4,0.1-0.5,0.2c-0.2,0.1-0.3,0.2-0.4,0.3c-0.1,0.1-0.3,0.2-0.4,0.3L140.8,123.9z M144.7,126.7c-0.3,0-0.7,0-1,0.1
				c-0.3,0-0.6,0.1-0.9,0.2c-0.3,0.1-0.5,0.2-0.7,0.4c-0.2,0.2-0.3,0.4-0.3,0.7c0,0.4,0.1,0.7,0.4,0.9c0.3,0.2,0.7,0.3,1.1,0.3
				c0.4,0,0.7-0.1,1-0.2c0.3-0.1,0.5-0.3,0.6-0.5s0.3-0.4,0.3-0.7c0.1-0.2,0.1-0.5,0.1-0.7v-0.5H144.7z"/>
			<path class="st0" d="M149.1,118.7h1.4v11.5h-1.4V118.7z"/>
			<path class="st0" d="M152.9,123.9c0.4-0.4,0.8-0.6,1.3-0.8c0.5-0.2,1-0.3,1.5-0.3c0.5,0,1,0.1,1.4,0.2c0.4,0.1,0.7,0.3,0.9,0.5
				c0.2,0.2,0.4,0.5,0.5,0.8s0.2,0.6,0.2,0.9v3.7c0,0.3,0,0.5,0,0.7c0,0.2,0,0.4,0,0.6h-1.2c0-0.4,0-0.7,0-1.1h0
				c-0.3,0.5-0.7,0.8-1.1,1c-0.4,0.2-0.9,0.3-1.4,0.3c-0.3,0-0.7,0-1-0.1c-0.3-0.1-0.6-0.2-0.8-0.4c-0.2-0.2-0.4-0.4-0.5-0.7
				c-0.1-0.3-0.2-0.6-0.2-0.9c0-0.5,0.1-0.9,0.3-1.2c0.2-0.3,0.5-0.6,0.8-0.8c0.4-0.2,0.8-0.3,1.3-0.4c0.5-0.1,1-0.1,1.5-0.1h1v-0.3
				c0-0.2,0-0.4-0.1-0.5c-0.1-0.2-0.2-0.3-0.3-0.5c-0.1-0.1-0.3-0.3-0.5-0.3c-0.2-0.1-0.5-0.1-0.8-0.1c-0.3,0-0.5,0-0.7,0.1
				c-0.2,0.1-0.4,0.1-0.5,0.2c-0.2,0.1-0.3,0.2-0.4,0.3c-0.1,0.1-0.3,0.2-0.4,0.3L152.9,123.9z M156.8,126.7c-0.3,0-0.7,0-1,0.1
				c-0.3,0-0.6,0.1-0.9,0.2c-0.3,0.1-0.5,0.2-0.7,0.4c-0.2,0.2-0.3,0.4-0.3,0.7c0,0.4,0.1,0.7,0.4,0.9c0.3,0.2,0.7,0.3,1.1,0.3
				c0.4,0,0.7-0.1,1-0.2c0.3-0.1,0.5-0.3,0.6-0.5s0.3-0.4,0.3-0.7c0.1-0.2,0.1-0.5,0.1-0.7v-0.5H156.8z"/>
			<path class="st0" d="M161.1,123h1.4v1.1h0c0.2-0.4,0.5-0.7,0.9-0.9c0.4-0.2,0.9-0.4,1.5-0.4c0.3,0,0.7,0.1,1,0.2
				c0.3,0.1,0.6,0.3,0.8,0.5c0.2,0.2,0.4,0.5,0.6,0.9c0.1,0.3,0.2,0.8,0.2,1.2v4.6h-1.4v-4.2c0-0.3,0-0.6-0.1-0.9
				c-0.1-0.2-0.2-0.4-0.4-0.6c-0.2-0.1-0.3-0.3-0.5-0.3c-0.2-0.1-0.4-0.1-0.6-0.1c-0.3,0-0.5,0-0.8,0.1c-0.2,0.1-0.5,0.2-0.6,0.4
				c-0.2,0.2-0.3,0.4-0.4,0.7c-0.1,0.3-0.2,0.7-0.2,1.1v3.7h-1.4V123z"/>
			<path class="st0" d="M177,130.2h-1.4v-1h0c-0.3,0.4-0.6,0.7-1.1,0.9c-0.5,0.2-0.9,0.3-1.4,0.3c-0.6,0-1.1-0.1-1.5-0.3
				c-0.4-0.2-0.8-0.5-1.2-0.8c-0.3-0.3-0.6-0.7-0.7-1.2c-0.2-0.5-0.3-0.9-0.3-1.5c0-0.5,0.1-1,0.3-1.5c0.2-0.5,0.4-0.9,0.7-1.2
				c0.3-0.3,0.7-0.6,1.2-0.8c0.4-0.2,1-0.3,1.5-0.3c0.5,0,1,0.1,1.5,0.3c0.5,0.2,0.8,0.5,1,0.9h0v-5.3h1.4V130.2z M173.3,129.1
				c0.4,0,0.7-0.1,1-0.2s0.5-0.3,0.7-0.5c0.2-0.2,0.4-0.5,0.5-0.8c0.1-0.3,0.2-0.6,0.2-1c0-0.4-0.1-0.7-0.2-1
				c-0.1-0.3-0.3-0.6-0.5-0.8c-0.2-0.2-0.4-0.4-0.7-0.5s-0.6-0.2-1-0.2c-0.4,0-0.7,0.1-1,0.2s-0.5,0.3-0.7,0.5
				c-0.2,0.2-0.4,0.5-0.5,0.8c-0.1,0.3-0.2,0.6-0.2,1c0,0.4,0.1,0.7,0.2,1c0.1,0.3,0.3,0.6,0.5,0.8c0.2,0.2,0.4,0.4,0.7,0.5
				S172.9,129.1,173.3,129.1z"/>
		</g>
	</g>
</g>
</svg>
